<svg xmlns="http://www.w3.org/2000/svg" viewBox="0 0 64 64" role="img" aria-label="United States flag">
  <defs>
    <clipPath id="circle">
      <circle cx="32" cy="32" r="32" />
    </clipPath>
  </defs>
  <g clip-path="url(#circle)">
    <path fill="#fff" d="M0 0h64v64H0z" />
    <path fill="#b22234" d="M0 0h64v5H0zm0 10h64v5H0zm0 10h64v5H0zm0 10h64v5H0zm0 10h64v5H0zm0 10h64v5H0zm0 10h64v4H0z" />
    <path fill="#3c3b6e" d="M0 0h34v35H0z" />
    <g fill="#fff">
      <circle cx="5" cy="5" r="1.3" /><circle cx="13" cy="5" r="1.3" /><circle cx="21" cy="5" r="1.3" /><circle cx="29" cy="5" r="1.3" />
      <circle cx="9" cy="11" r="1.3" /><circle cx="17" cy="11" r="1.3" /><circle cx="25" cy="11" r="1.3" />
      <circle cx="5" cy="17" r="1.3" /><circle cx="13" cy="17" r="1.3" /><circle cx="21" cy="17" r="1.3" /><circle cx="29" cy="17" r="1.3" />
      <circle cx="9" cy="23" r="1.3" /><circle cx="17" cy="23" r="1.3" /><circle cx="25" cy="23" r="1.3" />
      <circle cx="5" cy="29" r="1.3" /><circle cx="13" cy="29" r="1.3" /><circle cx="21" cy="29" r="1.3" /><circle cx="29" cy="29" r="1.3" />
    </g>
  </g>
</svg>
